<svg id="Raggruppa_846" data-name="Raggruppa 846" xmlns="http://www.w3.org/2000/svg" xmlns:xlink="http://www.w3.org/1999/xlink" width="310.833" height="124.656" viewBox="0 0 310.833 124.656">
  <defs>
    <clipPath id="clip-path">
      <rect id="Rettangolo_7" data-name="Rettangolo 7" width="310.833" height="124.656" fill="none"/>
    </clipPath>
  </defs>
  <g id="Raggruppa_845" data-name="Raggruppa 845" clip-path="url(#clip-path)">
    <path id="Tracciato_24" data-name="Tracciato 24" d="M46.8,3.116h6.9V20.953a26.92,26.92,0,0,0,.345,5.26,3.63,3.63,0,0,0,1.438,2.253,4.551,4.551,0,0,0,2.681.765,4.131,4.131,0,0,0,2.736-.846,3.572,3.572,0,0,0,1.243-2.241,38.382,38.382,0,0,0,.23-5.192V3.116h5.774V20.679a37.038,37.038,0,0,1-.61,7.844,7.693,7.693,0,0,1-3.106,4.436,11.3,11.3,0,0,1-6.866,1.853,12.876,12.876,0,0,1-6.44-1.361,7.579,7.579,0,0,1-3.335-3.82q-.989-2.456-.989-8.679Z" transform="translate(5.406 0.36)" fill="#161615"/>
    <path id="Tracciato_25" data-name="Tracciato 25" d="M70.737,10.44h6.142V13.6A5.836,5.836,0,0,1,82.7,9.983,6.514,6.514,0,0,1,86.459,11a4.479,4.479,0,0,1,1.9,2.6,20.492,20.492,0,0,1,.414,4.8V33.537H82.284V18.4q0-2.333-.6-2.881a2.292,2.292,0,0,0-1.611-.549,2.342,2.342,0,0,0-2.3,1.063A9.66,9.66,0,0,0,77.224,20V33.537H70.737Z" transform="translate(8.171 1.153)" fill="#161615"/>
    <path id="Tracciato_26" data-name="Tracciato 26" d="M97.4,9.353H90.819V2.972H97.4Zm-6.531,1.9h6.487v23.1H90.867Z" transform="translate(10.491 0.343)" fill="#161615"/>
    <path id="Tracciato_27" data-name="Tracciato 27" d="M98.346,10.393h6.238l3.2,13.617,3.232-13.617h5.39l-6.372,23.1H104.9Z" transform="translate(11.36 1.201)" fill="#161615"/>
    <path id="Tracciato_28" data-name="Tracciato 28" d="M134.034,23.065H121.866V24.34q0,3.1.849,4.149a2.717,2.717,0,0,0,2.223,1.047q2.955,0,3.323-3.933l5.773.366q-1.539,8.05-9.212,8.05a8.535,8.535,0,0,1-7.192-3.178,13.548,13.548,0,0,1-2.457-8.507q0-6.015,2.608-9.182a8.594,8.594,0,0,1,7-3.168,8.728,8.728,0,0,1,6.6,2.8q2.652,2.8,2.653,10.279m-6.119-3.728c.016-.274.023-.487.023-.64q0-4.459-3.025-4.46-2.978,0-3,5.1Z" transform="translate(13.304 1.153)" fill="#161615"/>
    <path id="Tracciato_29" data-name="Tracciato 29" d="M135.484,10.424h5.7V16q1.541-5.877,5.5-5.877a6.191,6.191,0,0,1,1.1.114V16.53a9.159,9.159,0,0,0-1.08-.091q-4.739,0-4.739,7.135V33.52h-6.487Z" transform="translate(15.65 1.17)" fill="#161615"/>
    <path id="Tracciato_30" data-name="Tracciato 30" d="M164.506,16l-4.624,1.372q-.92-3.132-3.4-3.133a1.784,1.784,0,0,0-2.025,2.012,2.076,2.076,0,0,0,.76,1.739,12.314,12.314,0,0,0,3.128,1.418,25.524,25.524,0,0,1,3.91,1.646,5.8,5.8,0,0,1,2.094,2.137,6.3,6.3,0,0,1,.851,3.282,7.064,7.064,0,0,1-2.324,5.375,9.128,9.128,0,0,1-6.487,2.172q-7.844,0-8.7-6.883l5.154-.823q.643,3.454,3.657,3.453,2.575,0,2.576-2.15a2.077,2.077,0,0,0-.759-1.738,10.255,10.255,0,0,0-2.944-1.281q-4-1.28-5.5-3.087a6.369,6.369,0,0,1-1.5-4.185,6.682,6.682,0,0,1,2.358-5.351,8.77,8.77,0,0,1,5.9-2.012q6.186,0,7.867,6.037" transform="translate(17.06 1.151)" fill="#161615"/>
    <path id="Tracciato_31" data-name="Tracciato 31" d="M172.808,9.353h-6.579V2.972h6.579Zm-6.534,1.9h6.486v23.1h-6.486Z" transform="translate(19.201 0.343)" fill="#161615"/>
    <path id="Tracciato_32" data-name="Tracciato 32" d="M177.485,4.059l6.3-.206v7.3h4.278v5.077h-4.278V24.71a26.673,26.673,0,0,0,.1,3.053,1.789,1.789,0,0,0,.689,1.166,3.186,3.186,0,0,0,1.967.469c.49,0,1.1-.015,1.841-.046v4.895a18.369,18.369,0,0,1-3.956.48,7.683,7.683,0,0,1-4.509-1.12,4.925,4.925,0,0,1-2-2.813,23.662,23.662,0,0,1-.436-5.375V16.225h-2.576V11.148h2.576Z" transform="translate(20.204 0.445)" fill="#161615"/>
    <path id="Tracciato_33" data-name="Tracciato 33" d="M195.586,18.934l-6.142-.595a7.486,7.486,0,0,1,2.978-5.351,10.508,10.508,0,0,1,6.406-1.875,9.74,9.74,0,0,1,5.245,1.247,5.474,5.474,0,0,1,2.494,2.893,18.355,18.355,0,0,1,.518,5.1v9.216q0,4.3.392,5.122h-6.026a12.737,12.737,0,0,1-.323-3.544,6.826,6.826,0,0,1-6.358,4.025,5.731,5.731,0,0,1-6.107-6.312,7.3,7.3,0,0,1,2.571-5.98q2.57-2.115,9.366-2.528v-.869a7.6,7.6,0,0,0-.469-3.2,1.863,1.863,0,0,0-1.819-.891q-2.475,0-2.725,3.544M202.417,7.18,200.485,9.1,192,3.819,194.573,0ZM200.6,23.668a8.376,8.376,0,0,0-4.036,1.243,3.676,3.676,0,0,0-1.207,3.111q0,2.918,2.161,2.918a2.672,2.672,0,0,0,2.128-1.311q.952-1.31.954-4.821Z" transform="translate(21.793 0)" fill="#161615"/>
    <path id="Tracciato_34" data-name="Tracciato 34" d="M46.8,49H56.918l4.439,19.278L66.348,49H76.17V80.215H69.707V54.076L63.288,80.215H58.275L52.409,54.076V80.215H46.8Z" transform="translate(5.406 5.66)" fill="#161615"/>
    <path id="Tracciato_35" data-name="Tracciato 35" d="M95.908,68.949H83.74v1.275q0,3.1.849,4.149a2.717,2.717,0,0,0,2.223,1.047q2.955,0,3.323-3.933l5.773.366Q94.369,79.9,86.7,79.9A8.535,8.535,0,0,1,79.5,76.724a13.548,13.548,0,0,1-2.457-8.507q0-6.015,2.608-9.182a8.593,8.593,0,0,1,7-3.168,8.728,8.728,0,0,1,6.6,2.8q2.652,2.8,2.653,10.279m-6.119-3.728c.016-.274.023-.487.023-.64q0-4.459-3.025-4.46-2.978,0-3,5.1Z" transform="translate(8.9 6.453)" fill="#161615"/>
    <path id="Tracciato_36" data-name="Tracciato 36" d="M97.357,56.308h5.7v5.58q1.541-5.877,5.5-5.877a6.191,6.191,0,0,1,1.1.114v6.289a9.159,9.159,0,0,0-1.08-.091q-4.739,0-4.739,7.135V79.4H97.357Z" transform="translate(11.246 6.47)" fill="#161615"/>
    <path id="Tracciato_37" data-name="Tracciato 37" d="M128.165,64.831l-6.027.229a8.558,8.558,0,0,0-.689-3.213,1.926,1.926,0,0,0-1.863-1.087q-3.266,0-3.266,6.815a13.512,13.512,0,0,0,.793,5.534,2.526,2.526,0,0,0,2.357,1.578q2.438,0,2.668-4.277l6.027.389q-.8,9.1-9.1,9.1a8.227,8.227,0,0,1-6.858-3.007q-2.378-3.007-2.377-8.953,0-5.9,2.493-8.988a8.482,8.482,0,0,1,6.994-3.087q8.134,0,8.845,8.964" transform="translate(12.687 6.453)" fill="#161615"/>
    <path id="Tracciato_38" data-name="Tracciato 38" d="M135.706,63.667l-6.142-.595a7.483,7.483,0,0,1,2.98-5.351,10.5,10.5,0,0,1,6.405-1.875,9.73,9.73,0,0,1,5.244,1.247,5.469,5.469,0,0,1,2.5,2.893,18.4,18.4,0,0,1,.518,5.1V74.3q0,4.3.39,5.122h-6.025a12.693,12.693,0,0,1-.324-3.544,6.828,6.828,0,0,1-6.36,4.025,5.731,5.731,0,0,1-6.107-6.312,7.306,7.306,0,0,1,2.571-5.98q2.572-2.115,9.367-2.528v-.869a7.581,7.581,0,0,0-.47-3.2,1.862,1.862,0,0,0-1.821-.891q-2.471,0-2.724,3.544M140.72,68.4a8.377,8.377,0,0,0-4.037,1.243,3.677,3.677,0,0,0-1.208,3.111q0,2.918,2.163,2.918a2.67,2.67,0,0,0,2.127-1.311q.954-1.31.955-4.821Z" transform="translate(14.876 6.451)" fill="#161615"/>
    <path id="Tracciato_39" data-name="Tracciato 39" d="M150.7,49.943l6.3-.206v7.3h4.278v5.077H157v8.485a27.442,27.442,0,0,0,.1,3.053,1.79,1.79,0,0,0,.691,1.166,3.188,3.188,0,0,0,1.967.469q.736,0,1.841-.046V80.13a18.371,18.371,0,0,1-3.957.48,7.688,7.688,0,0,1-4.509-1.12,4.916,4.916,0,0,1-2-2.813A23.581,23.581,0,0,1,150.7,71.3V62.109h-2.576V57.032H150.7Z" transform="translate(17.11 5.745)" fill="#161615"/>
    <path id="Tracciato_40" data-name="Tracciato 40" d="M180.615,67.873q0,12.029-9.421,12.029-9.442,0-9.442-12.029,0-12.006,9.442-12.006,9.421,0,9.421,12.006m-6.694.011a19.324,19.324,0,0,0-.606-5.978,2.155,2.155,0,0,0-2.121-1.557,2.177,2.177,0,0,0-2.107,1.478q-.643,1.478-.64,6.057A21.307,21.307,0,0,0,169,73.771a2.262,2.262,0,0,0,4.352.011,20.406,20.406,0,0,0,.573-5.9" transform="translate(18.684 6.453)" fill="#161615"/>
    <path id="Tracciato_41" data-name="Tracciato 41" d="M182.064,56.308h5.706v5.58q1.541-5.877,5.5-5.877a6.192,6.192,0,0,1,1.1.114v6.289a9.173,9.173,0,0,0-1.081-.091q-4.739,0-4.738,7.135V79.4h-6.488Z" transform="translate(21.031 6.47)" fill="#161615"/>
    <path id="Tracciato_42" data-name="Tracciato 42" d="M194.724,56.277h6.487V71.113a7.137,7.137,0,0,0,.415,3q.413.755,1.794.755a2.434,2.434,0,0,0,2.714-2.325q.137-1.086.137-4.475V56.277h6.487v23.1h-6.094V76.218a7.167,7.167,0,0,1-2.75,3,7.573,7.573,0,0,1-3.233.64,6.18,6.18,0,0,1-3.84-1.03,4.614,4.614,0,0,1-1.726-2.607,22.305,22.305,0,0,1-.392-4.916Z" transform="translate(22.493 6.501)" fill="#161615"/>
    <path id="Tracciato_43" data-name="Tracciato 43" d="M215.159,56.324H221.3V59.48a5.754,5.754,0,0,1,5.636-3.613q4.14,0,5.014,3.613a5.66,5.66,0,0,1,5.647-3.613,6.923,6.923,0,0,1,3.63.823,4.373,4.373,0,0,1,1.879,2.252,18.051,18.051,0,0,1,.531,5.386V79.421H237.15V64.992a9.558,9.558,0,0,0-.369-3.362,1.619,1.619,0,0,0-1.633-.778,1.94,1.94,0,0,0-1.978,1.017,11.75,11.75,0,0,0-.46,4.105V79.421h-6.487V64.786a8.919,8.919,0,0,0-.357-3.2q-.356-.731-1.621-.732a2.085,2.085,0,0,0-2.083,1.063,10.6,10.6,0,0,0-.516,4.059V79.421h-6.488Z" transform="translate(24.853 6.453)" fill="#161615"/>
    <path id="Tracciato_44" data-name="Tracciato 44" d="M31.907,59.527a20.626,20.626,0,0,0-13.82,8.89c-6.161,9.6-5.4,24.011,7.449,32.082,11.14,6.993,31.058,7.841,58.972,8.2l136.736-.116c57.472-.673,81.763-43.367,81.763-43.367,1.832-2.848,2.83-3.2,4.164-3.2a3.708,3.708,0,0,1,3.662,3.913A6.23,6.23,0,0,1,310,68.774l-25.812,49.786H63.542c-6.16,0-11.987,0-17.649-.356C17.588,116.07,1.437,102.91.1,84.775c-1.5-18.848,13.321-32.007,30.638-32.007,3,0,4.329,1.423,4.5,3.2,0,2.134-.666,3.2-3.331,3.556" transform="translate(0 6.095)" fill="#95222b"/>
  </g>
</svg>
